<?xml version="1.0" standalone="no"?>
<!DOCTYPE svg PUBLIC "-//W3C//DTD SVG 20010904//EN"
 "http://www.w3.org/TR/2001/REC-SVG-20010904/DTD/svg10.dtd">
<svg version="1.0" xmlns="http://www.w3.org/2000/svg"
 width="512.000000pt" height="512.000000pt" viewBox="0 0 512.000000 512.000000"
 preserveAspectRatio="xMidYMid meet">
<metadata>
Created by potrace 1.14, written by Peter Selinger 2001-2017
</metadata>
<g transform="translate(0.000000,512.000000) scale(0.100000,-0.100000)"
fill="#000000" stroke="none">
<path d="M415 5110 c-22 -5 -60 -16 -85 -25 -150 -53 -285 -212 -319 -373 -8
-38 -11 -659 -11 -2155 0 -2299 -4 -2151 57 -2277 58 -121 214 -240 351 -269
75 -16 4229 -16 4304 0 189 39 358 208 397 397 16 75 16 4229 0 4304 -35 167
-166 316 -335 380 l-59 23 -2130 1 c-1172 1 -2148 -2 -2170 -6z m3910 -705
c121 -25 249 -71 358 -127 53 -29 102 -56 107 -63 5 -6 -14 -101 -52 -253
l-60 -242 -84 0 c-61 0 -84 3 -84 13 0 6 20 91 45 187 24 96 41 178 37 182
-14 13 -128 66 -198 91 -389 140 -888 50 -1313 -235 -509 -343 -831 -865 -857
-1393 -30 -604 393 -1074 998 -1110 233 -14 510 42 745 150 42 19 79 35 83 35
4 0 21 -32 38 -70 l31 -70 -37 -19 c-130 -66 -371 -145 -537 -178 -113 -22
-423 -24 -535 -4 -582 104 -971 569 -971 1160 0 153 10 240 46 388 189 790
958 1471 1775 1572 108 14 370 6 465 -14z m-2165 -8 c0 -18 -686 -2752 -705
-2812 -68 -208 -179 -388 -335 -546 -156 -156 -332 -260 -533 -314 -97 -26
-257 -44 -257 -29 0 5 4 25 9 44 6 19 15 54 21 77 10 40 12 42 58 48 219 31
385 106 545 248 133 118 265 327 322 510 14 45 166 648 339 1340 l313 1257
-364 0 c-199 0 -363 3 -363 8 1 14 38 150 44 161 5 8 137 11 457 11 247 0 449
-2 449 -3z"/>
</g>
</svg>
